<?xml version="1.0" encoding="UTF-8" standalone="no"?>
<!-- Created with Inkscape (http://www.inkscape.org/) -->

<svg
   xmlns:dc="http://purl.org/dc/elements/1.1/"
   xmlns:cc="http://creativecommons.org/ns#"
   xmlns:rdf="http://www.w3.org/1999/02/22-rdf-syntax-ns#"
   xmlns:svg="http://www.w3.org/2000/svg"
   xmlns="http://www.w3.org/2000/svg"
   xmlns:sodipodi="http://sodipodi.sourceforge.net/DTD/sodipodi-0.dtd"
   xmlns:inkscape="http://www.inkscape.org/namespaces/inkscape"
   width="744.09448819"
   height="1052.3622047"
   id="svg2"
   version="1.1"
   inkscape:version="0.48.4 r9939"
   sodipodi:docname="experiments_1.svg">
  <defs
     id="defs4" />
  <sodipodi:namedview
     id="base"
     pagecolor="#ffffff"
     bordercolor="#666666"
     borderopacity="1.0"
     inkscape:pageopacity="0.0"
     inkscape:pageshadow="2"
     inkscape:zoom="0.35"
     inkscape:cx="41.120322"
     inkscape:cy="226.57626"
     inkscape:document-units="px"
     inkscape:current-layer="layer1"
     showgrid="false"
     inkscape:window-width="1366"
     inkscape:window-height="706"
     inkscape:window-x="-8"
     inkscape:window-y="-8"
     inkscape:window-maximized="1" />
  <metadata
     id="metadata7">
    <rdf:RDF>
      <cc:Work
         rdf:about="">
        <dc:format>image/svg+xml</dc:format>
        <dc:type
           rdf:resource="http://purl.org/dc/dcmitype/StillImage" />
        <dc:title></dc:title>
      </cc:Work>
    </rdf:RDF>
  </metadata>
  <g
     inkscape:label="Layer 1"
     inkscape:groupmode="layer"
     id="layer1">
    <rect
       style="fill:#ffffff;fill-opacity:1;stroke:#ffffff;stroke-width:8;stroke-miterlimit:4;stroke-opacity:1;stroke-dasharray:none;stroke-dashoffset:0"
       id="rect2989"
       width="185.71428"
       height="462.85715"
       x="-494.28571"
       y="109.50504" />
    <g
       id="g6471">
      <rect
         y="368.64398"
         x="-1026.2302"
         height="602.41193"
         width="602.41193"
         id="rect2993"
         style="fill:#b3ffff;fill-opacity:0.42328042;stroke:#000000;stroke-width:6.96832275;stroke-miterlimit:4;stroke-opacity:1;stroke-dasharray:none;stroke-dashoffset:0" />
      <path
         sodipodi:nodetypes="cscsscc"
         inkscape:connector-curvature="0"
         id="path3767"
         d="m -835.93276,595.99795 c 1.2129,48.51578 24.2579,32.74815 23.04501,54.58025 -1.21291,21.8321 -13.34185,48.51578 -13.34185,48.51578 0,0 -20.61921,26.68369 -1.21289,32.74816 19.40631,6.06447 64.28341,7.27736 64.28341,-6.06447 0,-13.34185 -26.68368,-76.41237 -10.91605,-81.26394 62.7433,-66.96946 -58.92086,-107.36921 -61.85763,-48.51578 z"
         style="fill:#0000ff;fill-opacity:1;stroke:#ff0000;stroke-width:3.81840323999999990;stroke-linecap:butt;stroke-linejoin:miter;stroke-miterlimit:4;stroke-opacity:1;stroke-dasharray:none" />
      <path
         sodipodi:nodetypes="cscsscc"
         inkscape:connector-curvature="0"
         id="path3767-4"
         d="m -678.17703,595.99824 c 1.21289,48.51578 24.25789,32.74815 23.045,54.58025 -1.2129,21.8321 -13.34184,48.51578 -13.34184,48.51578 0,0 -20.61921,26.68369 -1.2129,32.74816 19.40631,6.06447 64.28341,7.27736 64.28341,-6.06447 0,-13.34185 -26.68368,-76.41237 -10.91605,-81.26394 62.74331,-66.96946 -58.92085,-107.36921 -61.85762,-48.51578 z"
         style="fill:#0000ff;fill-opacity:1;stroke:#ff0000;stroke-width:3.81840323999999990;stroke-linecap:butt;stroke-linejoin:miter;stroke-miterlimit:4;stroke-opacity:1;stroke-dasharray:none" />
    </g>
    <rect
       style="fill:#b3ffff;fill-opacity:0.42328042;stroke:#000000;stroke-width:6.96832275;stroke-miterlimit:4;stroke-opacity:1;stroke-dasharray:none;stroke-dashoffset:0"
       id="rect2993-9"
       width="602.41193"
       height="602.41193"
       x="-286.92026"
       y="368.64398" />
    <path
       style="fill:#0000ff;fill-opacity:1;stroke:#ff0000;stroke-width:3.81840323999999990;stroke-linecap:butt;stroke-linejoin:miter;stroke-miterlimit:4;stroke-opacity:1;stroke-dasharray:none"
       d="m -96.622827,595.99795 c 0.269424,10.77697 -78.383883,-7.33229 -76.465103,-1.7825 4.00638,11.5879 90.506863,39.92989 94.902801,43.76288 2.976566,2.59539 4.988219,5.74339 4.607304,12.59987 -0.542215,9.75988 -88.980255,16.20362 -91.826715,25.08529 -3.52084,10.98593 95.627728,13.43049 95.627728,13.43049 0,0 -46.333498,32.39797 -26.927179,38.46245 4.441006,1.38781 -7.728889,56.40629 0.634495,58.21851 5.208211,1.12855 23.852666,-55.36038 31.99968,-39.98968 59.9981313,113.19648 9.980946,-9.55328 12.654182,-9.60987 14.83385,-0.31401 27.566486,-3.29112 27.566486,-10.39772 0,-13.34185 -26.683682,-76.41237 -10.916051,-81.26394 30.5382181,-32.59516 -6.723494,-45.84627 -4.488566,-70.52253 11.607914,-128.16515 -32.041591,6.02936 -40.030576,-3.79947 -65.344209,-80.39287 -16.659301,12.19523 -17.338486,25.80622 z"
       id="path3767-48"
       inkscape:connector-curvature="0"
       sodipodi:nodetypes="csssscssssscssc" />
    <path
       style="fill:#0000ff;fill-opacity:1;stroke:#ff0000;stroke-width:3.81840323999999990;stroke-linecap:butt;stroke-linejoin:miter;stroke-miterlimit:4;stroke-opacity:1;stroke-dasharray:none"
       d="m 121.00488,715.94518 c -0.26943,-10.77697 78.38388,7.33229 76.4651,1.7825 -4.00638,-11.5879 -90.50686,-39.92988 -94.9028,-43.76287 -2.976573,-2.59539 -4.988223,-5.74339 -4.607303,-12.59987 0.54221,-9.75988 88.980253,-16.20362 91.826713,-25.08529 3.52084,-10.98593 -95.627723,-13.43049 -95.627723,-13.43049 0,0 46.333493,-32.39797 26.927173,-38.46245 -4.441,-1.38781 7.72889,-56.40629 -0.63449,-58.21851 -5.20821,-1.12855 -23.852673,55.36038 -31.999683,39.98968 -59.99813,-113.19648 -9.98095,9.55328 -12.65418,9.60987 -14.83385,0.31401 -27.56649,3.29112 -27.56649,10.39772 0,13.34185 26.68368,76.41237 10.91605,81.26394 -30.53822,32.59515 6.7235,45.84626 4.48857,70.52252 -11.60792,128.16515 32.04159,-6.02936 40.030573,3.79947 65.34421,80.39287 16.6593,-12.19523 17.33849,-25.80622 z"
       id="path3767-48-1"
       inkscape:connector-curvature="0"
       sodipodi:nodetypes="csssscssssscssc" />
    <rect
       style="fill:#b3ffff;fill-opacity:0.42328042;stroke:#000000;stroke-width:6.96832275;stroke-miterlimit:4;stroke-opacity:1;stroke-dasharray:none;stroke-dashoffset:0"
       id="rect2993-9-4"
       width="602.41193"
       height="602.41193"
       x="430.2226"
       y="368.64398" />
    <path
       style="fill:#0000ff;fill-opacity:1;stroke:#ff0000;stroke-width:3.81840323999999990;stroke-linecap:butt;stroke-linejoin:miter;stroke-miterlimit:4;stroke-opacity:1;stroke-dasharray:none"
       d="m 620.52003,595.99795 c -91.03813,31.33175 3.04318,24.5737 6.42081,30.2672 7.11501,11.99341 -71.12477,12.36595 -71.94723,27.17019 -0.50605,9.10898 85.65906,16.20538 83.02626,24.71304 -3.67741,11.88322 -7.79668,20.9456 -7.79668,20.9456 0,0 -68.27009,31.71087 -70.36231,40.3775 -1.53997,6.37899 68.04473,-16.17848 69.14942,-7.62934 18.29848,141.61113 30.90745,-6.38898 39.51985,4.2406 97.8852,120.81169 18.17707,-11.25393 24.76356,-10.30507 97.56557,14.05547 41.69578,-6.74752 9.30169,-16.65697 -78.83903,-24.11709 35.22035,-41.2014 34.26868,-44.49113 -3.80281,-13.14548 -59.06222,2.56562 -59.44006,-7.43143 -0.2535,-6.70717 1.04729,-11.48246 4.95364,-12.68441 13.01813,-13.89498 109.52628,-26.64617 17.94632,-37.60435 -6.79888,-0.81354 94.78632,-89.61001 -8.7906,-22.8435 -6.96722,4.49113 52.56292,-138.70764 -15.33964,-16.27849 -6.72341,12.12239 -27.14622,11.86742 -33.29412,0.81492 -56.42332,-101.43619 -21.58662,11.50446 -22.37959,27.39564 z"
       id="path3767-48-5"
       inkscape:connector-curvature="0"
       sodipodi:nodetypes="cssscssssssscssssc" />
    <path
       style="fill:#0000ff;fill-opacity:1;stroke:#ff0000;stroke-width:3.81840323999999990;stroke-linecap:butt;stroke-linejoin:miter;stroke-miterlimit:4;stroke-opacity:1;stroke-dasharray:none"
       d="m 882.47197,715.89271 c 91.03813,-31.33175 -3.04318,-24.5737 -6.42081,-30.2672 -7.11501,-11.99341 71.12477,-12.36595 71.94723,-27.17019 0.50605,-9.10898 -85.65906,-16.20538 -83.02626,-24.71304 3.67741,-11.88322 7.79668,-20.9456 7.79668,-20.9456 0,0 68.27009,-31.71087 70.36231,-40.3775 1.53997,-6.37899 -68.04473,16.17848 -69.14942,7.62934 -18.29848,-141.61113 -30.90745,6.38898 -39.51985,-4.2406 -97.8852,-120.81169 -18.17707,11.25393 -24.76356,10.30507 -97.56557,-14.05547 -41.69578,6.74752 -9.30169,16.65697 78.83903,24.11709 -35.22035,41.2014 -34.26868,44.49113 3.80281,13.14548 59.06222,-2.56562 59.44006,7.43143 0.2535,6.70717 -1.04729,11.48246 -4.95364,12.68441 -13.01813,13.89498 -109.52628,26.64617 -17.94632,37.60435 6.79888,0.81354 -94.78632,89.61001 8.7906,22.8435 6.96722,-4.49113 -52.56292,138.70765 15.33964,16.27849 6.72341,-12.12239 27.14622,-11.86742 33.29412,-0.81492 56.42332,101.43618 21.58662,-11.50446 22.37959,-27.39564 z"
       id="path3767-48-5-7"
       inkscape:connector-curvature="0"
       sodipodi:nodetypes="cssscssssssscssssc" />
    <text
       xml:space="preserve"
       style="font-size:40px;font-style:normal;font-weight:normal;line-height:125%;letter-spacing:0px;word-spacing:0px;fill:#000000;fill-opacity:1;stroke:none;font-family:Sans"
       x="-1031.1597"
       y="1104.005"
       id="text3926"
       sodipodi:linespacing="125%"><tspan
         sodipodi:role="line"
         id="tspan3928"
         x="-1031.1597"
         y="1104.005">a)</tspan></text>
    <text
       xml:space="preserve"
       style="font-size:40px;font-style:normal;font-weight:normal;line-height:125%;letter-spacing:0px;word-spacing:0px;fill:#000000;fill-opacity:1;stroke:none;font-family:Sans"
       x="-293.02161"
       y="1104.005"
       id="text3926-1"
       sodipodi:linespacing="125%"><tspan
         sodipodi:role="line"
         id="tspan3928-1"
         x="-293.02161"
         y="1104.005">b)</tspan></text>
    <text
       xml:space="preserve"
       style="font-size:40px;font-style:normal;font-weight:normal;line-height:125%;letter-spacing:0px;word-spacing:0px;fill:#000000;fill-opacity:1;stroke:none;font-family:Sans"
       x="425.17593"
       y="1104.005"
       id="text3926-1-5"
       sodipodi:linespacing="125%"><tspan
         sodipodi:role="line"
         id="tspan3928-1-2"
         x="425.17593"
         y="1104.005">c)</tspan></text>
  </g>
</svg>
