<?xml version="1.0" encoding="UTF-8" standalone="no"?>
<!-- Created with Inkscape (http://www.inkscape.org/) -->

<svg
   xmlns:dc="http://purl.org/dc/elements/1.1/"
   xmlns:cc="http://creativecommons.org/ns#"
   xmlns:rdf="http://www.w3.org/1999/02/22-rdf-syntax-ns#"
   xmlns:svg="http://www.w3.org/2000/svg"
   xmlns="http://www.w3.org/2000/svg"
   xmlns:sodipodi="http://sodipodi.sourceforge.net/DTD/sodipodi-0.dtd"
   xmlns:inkscape="http://www.inkscape.org/namespaces/inkscape"
   width="744.09448819"
   height="1052.3622047"
   id="svg3982"
   version="1.1"
   inkscape:version="0.48.4 r9939"
   sodipodi:docname="experiments_2.eps">
  <defs
     id="defs3984" />
  <sodipodi:namedview
     id="base"
     pagecolor="#ffffff"
     bordercolor="#666666"
     borderopacity="1.0"
     inkscape:pageopacity="0.0"
     inkscape:pageshadow="2"
     inkscape:zoom="0.24748737"
     inkscape:cx="383.82333"
     inkscape:cy="520"
     inkscape:document-units="px"
     inkscape:current-layer="layer1"
     showgrid="false"
     inkscape:window-width="1366"
     inkscape:window-height="706"
     inkscape:window-x="-8"
     inkscape:window-y="-8"
     inkscape:window-maximized="1" />
  <metadata
     id="metadata3987">
    <rdf:RDF>
      <cc:Work
         rdf:about="">
        <dc:format>image/svg+xml</dc:format>
        <dc:type
           rdf:resource="http://purl.org/dc/dcmitype/StillImage" />
        <dc:title></dc:title>
      </cc:Work>
    </rdf:RDF>
  </metadata>
  <g
     inkscape:label="Layer 1"
     inkscape:groupmode="layer"
     id="layer1">
    <rect
       style="fill:#b3ffff;fill-opacity:0.42328042;stroke:#000000;stroke-width:6.96832275;stroke-miterlimit:4;stroke-opacity:1;stroke-dasharray:none;stroke-dashoffset:0"
       id="rect2993"
       width="602.41193"
       height="602.41193"
       x="-941.20599"
       y="108.29907" />
    <path
       style="fill:#0000ff;fill-opacity:1;stroke:#ff0000;stroke-width:3.81840323999999990;stroke-linecap:butt;stroke-linejoin:miter;stroke-miterlimit:4;stroke-opacity:1;stroke-dasharray:none"
       d="m -664.90855,335.65304 c 1.2129,48.51578 24.2579,32.74815 23.04501,54.58026 -1.21291,21.8321 -13.34185,48.51578 -13.34185,48.51578 0,0 -20.61921,26.68368 -1.21289,32.74815 19.40631,6.06447 64.28341,7.27737 64.28341,-6.06447 0,-13.34184 -26.68368,-76.41236 -10.91605,-81.26394 62.7433,-66.96945 -58.92086,-107.3692 -61.85763,-48.51578 z"
       id="path3767"
       inkscape:connector-curvature="0"
       sodipodi:nodetypes="cscsscc" />
    <path
       sodipodi:type="arc"
       style="fill:#00ff00;fill-opacity:1;stroke:none"
       id="path4020"
       sodipodi:cx="-105.71429"
       sodipodi:cy="560.93359"
       sodipodi:rx="20"
       sodipodi:ry="20"
       d="m -85.714287,560.93359 a 20,20 0 1 1 -40.000003,0 20,20 0 1 1 40.000003,0 z"
       transform="translate(-645.71428,27.142866)" />
    <path
       sodipodi:type="arc"
       style="fill:#00ff00;fill-opacity:1;stroke:none"
       id="path4020-7"
       sodipodi:cx="-105.71429"
       sodipodi:cy="560.93359"
       sodipodi:rx="20"
       sodipodi:ry="20"
       d="m -85.714287,560.93359 a 20,20 0 1 1 -40.000003,0 20,20 0 1 1 40.000003,0 z"
       transform="translate(-402.85714,27.142866)" />
    <rect
       style="fill:#b3ffff;fill-opacity:0.42328042;stroke:#000000;stroke-width:6.96832275;stroke-miterlimit:4;stroke-opacity:1;stroke-dasharray:none;stroke-dashoffset:0"
       id="rect2993-4"
       width="602.41193"
       height="602.41193"
       x="-86.832687"
       y="108.2991" />
    <path
       style="fill:#0000ff;fill-opacity:1;stroke:#ff0000;stroke-width:3.81840323999999990;stroke-linecap:butt;stroke-linejoin:miter;stroke-miterlimit:4;stroke-opacity:1;stroke-dasharray:none"
       d="m 189.46476,335.65306 c 1.2129,48.51578 24.2579,32.74815 23.04501,54.58026 -1.21291,21.8321 -13.34185,48.51578 -13.34185,48.51578 0,0 -8.20035,10.61221 -9.39089,19.97272 -0.6973,5.48241 -60.60926,68.11414 -53.44131,70.35413 3.36802,1.0525 69.12253,-55.61982 73.65718,-54.91031 13.75341,2.15194 31.18128,2.49304 42.02376,-0.39184 6.18094,-1.64458 66.79032,59.30208 66.79032,55.29859 0,-3.87047 -58.81419,-75.56562 -61.6176,-85.17078 -6.8602,-23.50461 -17.06043,-56.28863 -5.86699,-59.73277 62.7433,-66.96945 -58.92086,-107.3692 -61.85763,-48.51578 z"
       id="path3767-2"
       inkscape:connector-curvature="0"
       sodipodi:nodetypes="cscsssssscc" />
    <path
       sodipodi:type="arc"
       style="fill:#00ff00;fill-opacity:1;stroke:none"
       id="path4020-3"
       sodipodi:cx="-105.71429"
       sodipodi:cy="560.93359"
       sodipodi:rx="20"
       sodipodi:ry="20"
       d="m -85.714287,560.93359 a 20,20 0 1 1 -40.000003,0 20,20 0 1 1 40.000003,0 z"
       transform="translate(208.65903,27.142888)" />
    <path
       sodipodi:type="arc"
       style="fill:#00ff00;fill-opacity:1;stroke:none"
       id="path4020-7-2"
       sodipodi:cx="-105.71429"
       sodipodi:cy="560.93359"
       sodipodi:rx="20"
       sodipodi:ry="20"
       d="m -85.714287,560.93359 a 20,20 0 1 1 -40.000003,0 20,20 0 1 1 40.000003,0 z"
       transform="translate(451.51617,27.142888)" />
    <text
       xml:space="preserve"
       style="font-size:40px;font-style:normal;font-weight:normal;line-height:125%;letter-spacing:0px;word-spacing:0px;fill:#000000;fill-opacity:1;stroke:none;font-family:Sans"
       x="-946.1355"
       y="844.27075"
       id="text4612"
       sodipodi:linespacing="125%"><tspan
         sodipodi:role="line"
         id="tspan4614"
         x="-946.1355"
         y="844.27075">a)</tspan></text>
    <text
       xml:space="preserve"
       style="font-size:40px;font-style:normal;font-weight:normal;line-height:125%;letter-spacing:0px;word-spacing:0px;fill:#000000;fill-opacity:1;stroke:none;font-family:Sans"
       x="-92.934036"
       y="844.27075"
       id="text4616"
       sodipodi:linespacing="125%"><tspan
         sodipodi:role="line"
         id="tspan4618"
         x="-92.934036"
         y="844.27075">b)</tspan></text>
  </g>
</svg>
