<?xml version="1.0" encoding="UTF-8" standalone="no"?>
<!-- Created with Inkscape (http://www.inkscape.org/) -->

<svg
   xmlns:dc="http://purl.org/dc/elements/1.1/"
   xmlns:cc="http://creativecommons.org/ns#"
   xmlns:rdf="http://www.w3.org/1999/02/22-rdf-syntax-ns#"
   xmlns:svg="http://www.w3.org/2000/svg"
   xmlns="http://www.w3.org/2000/svg"
   xmlns:sodipodi="http://sodipodi.sourceforge.net/DTD/sodipodi-0.dtd"
   xmlns:inkscape="http://www.inkscape.org/namespaces/inkscape"
   width="744.09448819"
   height="1052.3622047"
   id="svg4635"
   version="1.1"
   inkscape:version="0.48.4 r9939"
   sodipodi:docname="experiment_3.eps">
  <defs
     id="defs4637" />
  <sodipodi:namedview
     id="base"
     pagecolor="#ffffff"
     bordercolor="#666666"
     borderopacity="1.0"
     inkscape:pageopacity="0.0"
     inkscape:pageshadow="2"
     inkscape:zoom="0.35"
     inkscape:cx="123.88128"
     inkscape:cy="520"
     inkscape:document-units="px"
     inkscape:current-layer="layer1"
     showgrid="false"
     inkscape:window-width="1366"
     inkscape:window-height="706"
     inkscape:window-x="-8"
     inkscape:window-y="-8"
     inkscape:window-maximized="1" />
  <metadata
     id="metadata4640">
    <rdf:RDF>
      <cc:Work
         rdf:about="">
        <dc:format>image/svg+xml</dc:format>
        <dc:type
           rdf:resource="http://purl.org/dc/dcmitype/StillImage" />
        <dc:title></dc:title>
      </cc:Work>
    </rdf:RDF>
  </metadata>
  <g
     inkscape:label="Layer 1"
     inkscape:groupmode="layer"
     id="layer1">
    <rect
       style="fill:#b3ffff;fill-opacity:0.42328042;stroke:#000000;stroke-width:6.96832275;stroke-miterlimit:4;stroke-opacity:1;stroke-dasharray:none;stroke-dashoffset:0"
       id="rect2993"
       width="602.41193"
       height="602.41193"
       x="-995.4917"
       y="285.44193" />
    <path
       style="fill:#0000ff;fill-opacity:1;stroke:#ff0000;stroke-width:3.81840323999999990;stroke-linecap:butt;stroke-linejoin:miter;stroke-miterlimit:4;stroke-opacity:1;stroke-dasharray:none"
       d="m -593.47994,401.36733 c 1.2129,48.51578 24.2579,32.74815 23.04501,54.58026 -1.21291,21.8321 -13.34185,48.51578 -13.34185,48.51578 0,0 -20.61921,26.68368 -1.21289,32.74815 19.40631,6.06447 64.28341,7.27737 64.28341,-6.06447 0,-13.34184 -26.68368,-76.41236 -10.91605,-81.26394 62.7433,-66.96945 -58.92086,-107.3692 -61.85763,-48.51578 z"
       id="path3767"
       inkscape:connector-curvature="0"
       sodipodi:nodetypes="cscsscc" />
    <path
       sodipodi:type="arc"
       style="fill:#ff8a00;fill-opacity:1;stroke:none"
       id="path4020-2"
       sodipodi:cx="-105.71429"
       sodipodi:cy="560.93359"
       sodipodi:rx="20"
       sodipodi:ry="20"
       d="m -85.714287,560.93359 a 20,20 0 1 1 -40.000003,0 20,20 0 1 1 40.000003,0 z"
       transform="matrix(3.2459751,0,0,3.2459751,-462.50599,-1056.9233)" />
    <path
       sodipodi:type="arc"
       style="fill:#00ff00;fill-opacity:1;stroke:none"
       id="path4020"
       sodipodi:cx="-105.71429"
       sodipodi:cy="560.93359"
       sodipodi:rx="20"
       sodipodi:ry="20"
       d="m -85.714287,560.93359 a 20,20 0 1 1 -40.000003,0 20,20 0 1 1 40.000003,0 z"
       transform="translate(-699.99996,204.28573)" />
    <rect
       style="fill:#b3ffff;fill-opacity:0.42328042;stroke:#000000;stroke-width:6.96832275;stroke-miterlimit:4;stroke-opacity:1;stroke-dasharray:none;stroke-dashoffset:0"
       id="rect2993-6"
       width="602.41193"
       height="602.41193"
       x="-275.49173"
       y="285.44193" />
    <path
       style="fill:#0000ff;fill-opacity:1;stroke:#ff0000;stroke-width:3.81840323999999990;stroke-linecap:butt;stroke-linejoin:miter;stroke-miterlimit:4;stroke-opacity:1;stroke-dasharray:none"
       d="m 126.52002,401.36734 c 1.2129,48.51578 24.2579,32.74815 23.04501,54.58026 -1.21291,21.8321 -13.34185,48.51578 -13.34185,48.51578 0,0 -20.61921,26.68368 -1.21289,32.74815 19.40631,6.06447 64.28341,7.27737 64.28341,-6.06447 0,-13.34184 -26.68368,-76.41236 -10.91605,-81.26394 62.7433,-66.96945 -58.92086,-107.3692 -61.85763,-48.51578 z"
       id="path3767-8"
       inkscape:connector-curvature="0"
       sodipodi:nodetypes="cscsscc" />
    <path
       sodipodi:type="arc"
       style="fill:#ff8a00;fill-opacity:1;stroke:none"
       id="path4020-2-5"
       sodipodi:cx="-105.71429"
       sodipodi:cy="560.93359"
       sodipodi:rx="20"
       sodipodi:ry="20"
       d="m -85.714287,560.93359 a 20,20 0 1 1 -40.000003,0 20,20 0 1 1 40.000003,0 z"
       transform="matrix(3.2459751,0,0,3.2459751,257.49397,-1056.9233)" />
    <path
       sodipodi:type="arc"
       style="fill:#00ff00;fill-opacity:1;stroke:none"
       id="path4020-7"
       sodipodi:cx="-105.71429"
       sodipodi:cy="560.93359"
       sodipodi:rx="20"
       sodipodi:ry="20"
       d="m -85.714287,560.93359 a 20,20 0 1 1 -40.000003,0 20,20 0 1 1 40.000003,0 z"
       transform="translate(20.000002,204.28574)" />
    <path
       style="fill:#ff8a00;fill-opacity:1;stroke:none"
       d="m -93.472491,703.3718 c 52.250896,-15.75284 75.035146,-42.68896 90.707428,-57.73703 12.661762,-12.15745 20.747014,-12.03832 37.941951,-12.35294 5.054715,-0.0925 6.665123,7.0092 9.443034,10.18493 6.025318,6.88818 4.859496,26.0618 0.604806,30.06822 -16.403001,15.44583 -19.093415,21.32319 -19.093415,21.32319 l -28.869024,34.3043 -39.002481,52.07167 z"
       id="path5260"
       inkscape:connector-curvature="0"
       sodipodi:nodetypes="csssscccc" />
    <rect
       style="fill:#b3ffff;fill-opacity:0.42328042;stroke:#000000;stroke-width:6.96832275;stroke-miterlimit:4;stroke-opacity:1;stroke-dasharray:none;stroke-dashoffset:0"
       id="rect2993-6-9"
       width="602.41193"
       height="602.41193"
       x="444.50827"
       y="285.44193" />
    <path
       style="fill:#0000ff;fill-opacity:1;stroke:#ff0000;stroke-width:3.81840323999999990;stroke-linecap:butt;stroke-linejoin:miter;stroke-miterlimit:4;stroke-opacity:1;stroke-dasharray:none"
       d="m 846.52001,401.36735 c 1.2129,48.51578 24.2579,32.74815 23.04501,54.58026 -1.21291,21.8321 -13.34185,48.51578 -13.34185,48.51578 0,0 -20.61921,26.68368 -1.21289,32.74815 19.40631,6.06447 64.28341,7.27737 64.28341,-6.06447 0,-13.34184 -26.68368,-76.41236 -10.91605,-81.26394 62.7433,-66.96945 -58.92086,-107.3692 -61.85763,-48.51578 z"
       id="path3767-8-5"
       inkscape:connector-curvature="0"
       sodipodi:nodetypes="cscsscc" />
    <path
       sodipodi:type="arc"
       style="fill:#ff8a00;fill-opacity:1;stroke:none"
       id="path4020-2-5-4"
       sodipodi:cx="-105.71429"
       sodipodi:cy="560.93359"
       sodipodi:rx="20"
       sodipodi:ry="20"
       d="m -85.714287,560.93359 a 20,20 0 1 1 -40.000003,0 20,20 0 1 1 40.000003,0 z"
       transform="matrix(3.2459751,0,0,3.2459751,977.49396,-1056.9233)" />
    <path
       sodipodi:type="arc"
       style="fill:#00ff00;fill-opacity:1;stroke:none"
       id="path4020-7-3"
       sodipodi:cx="-105.71429"
       sodipodi:cy="560.93359"
       sodipodi:rx="20"
       sodipodi:ry="20"
       d="m -85.714287,560.93359 a 20,20 0 1 1 -40.000003,0 20,20 0 1 1 40.000003,0 z"
       transform="translate(739.99999,204.28575)" />
    <path
       style="fill:#ff8a00;fill-opacity:1;stroke:none"
       d="m 626.5275,703.37181 c 52.25089,-15.75284 75.03514,-42.68896 90.70743,-57.73703 12.66176,-12.15745 20.74701,-12.03832 37.94195,-12.35294 5.05471,-0.0925 6.66512,7.0092 9.44303,10.18493 6.02532,6.88818 4.8595,26.0618 0.60481,30.06822 -16.403,15.44583 -19.09342,21.32319 -19.09342,21.32319 l -28.86902,34.3043 -39.00248,52.07167 z"
       id="path5260-1"
       inkscape:connector-curvature="0"
       sodipodi:nodetypes="csssscccc" />
    <path
       sodipodi:type="arc"
       style="fill:#b3ffff;fill-opacity:0.79532166;stroke:none"
       id="path5331"
       sodipodi:cx="1230"
       sodipodi:cy="507.36218"
       sodipodi:rx="45.714287"
       sodipodi:ry="42.142857"
       d="m 1275.7143,507.36218 a 45.714287,42.142857 0 1 1 -2e-4,-0.12562 L 1230,507.36218 z"
       sodipodi:start="0"
       sodipodi:end="6.2802045"
       transform="matrix(0.28125002,0,0,0.24924336,342.63392,556.40935)" />
    <path
       sodipodi:type="arc"
       style="fill:#b3ffff;fill-opacity:0.79532166;stroke:none"
       id="path5331-2"
       sodipodi:cx="1230"
       sodipodi:cy="507.36218"
       sodipodi:rx="45.714287"
       sodipodi:ry="42.142857"
       d="m 1275.7143,507.36218 a 45.714287,42.142857 0 1 1 -2e-4,-0.12562 L 1230,507.36218 z"
       sodipodi:start="0"
       sodipodi:end="6.2802045"
       transform="matrix(0.28125002,0,0,0.24924336,356.91962,607.3341)" />
    <path
       sodipodi:type="arc"
       style="fill:#b3ffff;fill-opacity:0.79532166;stroke:none"
       id="path5331-2-3"
       sodipodi:cx="1230"
       sodipodi:cy="507.36218"
       sodipodi:rx="45.714287"
       sodipodi:ry="42.142857"
       d="m 1275.7143,507.36218 a 45.714287,42.142857 0 1 1 -2e-4,-0.12562 L 1230,507.36218 z"
       sodipodi:start="0"
       sodipodi:end="6.2802045"
       transform="matrix(0.28125002,0,0,0.24924336,318.3482,577.3341)" />
    <path
       sodipodi:type="arc"
       style="fill:#b3ffff;fill-opacity:0.79532166;stroke:none"
       id="path5331-2-3-3"
       sodipodi:cx="1230"
       sodipodi:cy="507.36218"
       sodipodi:rx="45.714287"
       sodipodi:ry="42.142857"
       d="m 1275.7143,507.36218 a 45.714287,42.142857 0 1 1 -2e-4,-0.12562 L 1230,507.36218 z"
       sodipodi:start="0"
       sodipodi:end="6.2802045"
       transform="matrix(0.28125002,0,0,0.24924336,361.20533,573.04838)" />
    <path
       sodipodi:type="arc"
       style="fill:#b3ffff;fill-opacity:0.79532166;stroke:none"
       id="path5331-2-3-3-4"
       sodipodi:cx="1230"
       sodipodi:cy="507.36218"
       sodipodi:rx="45.714287"
       sodipodi:ry="42.142857"
       d="m 1275.7143,507.36218 a 45.714287,42.142857 0 1 1 -2e-4,-0.12562 L 1230,507.36218 z"
       sodipodi:start="0"
       sodipodi:end="6.2802045"
       transform="matrix(0.28125002,0,0,0.24924336,341.20533,590.19124)" />
    <path
       sodipodi:type="arc"
       style="fill:#b3ffff;fill-opacity:0.79532166;stroke:none"
       id="path5331-2-3-3-4-1"
       sodipodi:cx="1230"
       sodipodi:cy="507.36218"
       sodipodi:rx="45.714287"
       sodipodi:ry="42.142857"
       d="m 1275.7143,507.36218 a 45.714287,42.142857 0 1 1 -2e-4,-0.12562 L 1230,507.36218 z"
       sodipodi:start="0"
       sodipodi:end="6.2802045"
       transform="matrix(0.28125002,0,0,0.24924336,385.49105,573.04839)" />
    <path
       sodipodi:type="arc"
       style="fill:#b3ffff;fill-opacity:0.79532166;stroke:none"
       id="path5331-2-3-3-4-1-1"
       sodipodi:cx="1230"
       sodipodi:cy="507.36218"
       sodipodi:rx="45.714287"
       sodipodi:ry="42.142857"
       d="m 1275.7143,507.36218 a 45.714287,42.142857 0 1 1 -2e-4,-0.12562 L 1230,507.36218 z"
       sodipodi:start="0"
       sodipodi:end="6.2802045"
       transform="matrix(0.28125002,0,0,0.24924336,319.77676,617.33409)" />
    <path
       sodipodi:type="arc"
       style="fill:#b3ffff;fill-opacity:0.79532166;stroke:none"
       id="path5331-2-3-3-4-1-1-3"
       sodipodi:cx="1230"
       sodipodi:cy="507.36218"
       sodipodi:rx="45.714287"
       sodipodi:ry="42.142857"
       d="m 1275.7143,507.36218 a 45.714287,42.142857 0 1 1 -2e-4,-0.12562 L 1230,507.36218 z"
       sodipodi:start="0"
       sodipodi:end="6.2802045"
       transform="matrix(0.28125002,0,0,0.24924336,332.6339,633.04838)" />
    <path
       sodipodi:type="arc"
       style="fill:#b3ffff;fill-opacity:0.79532166;stroke:none"
       id="path5331-2-3-3-4-1-1-3-8"
       sodipodi:cx="1230"
       sodipodi:cy="507.36218"
       sodipodi:rx="45.714287"
       sodipodi:ry="42.142857"
       d="m 1275.7143,507.36218 a 45.714287,42.142857 0 1 1 -2e-4,-0.12562 L 1230,507.36218 z"
       sodipodi:start="0"
       sodipodi:end="6.2802045"
       transform="matrix(0.28125002,0,0,0.24924336,301.20533,587.3341)" />
    <text
       xml:space="preserve"
       style="font-size:40px;font-style:normal;font-weight:normal;line-height:125%;letter-spacing:0px;word-spacing:0px;fill:#000000;fill-opacity:1;stroke:none;font-family:Sans"
       x="-1000.4211"
       y="989.50507"
       id="text5477"
       sodipodi:linespacing="125%"><tspan
         sodipodi:role="line"
         id="tspan5479"
         x="-1000.4211"
         y="989.50507">a)</tspan></text>
    <text
       xml:space="preserve"
       style="font-size:40px;font-style:normal;font-weight:normal;line-height:125%;letter-spacing:0px;word-spacing:0px;fill:#000000;fill-opacity:1;stroke:none;font-family:Sans"
       x="-281.59308"
       y="989.50507"
       id="text5481"
       sodipodi:linespacing="125%"><tspan
         sodipodi:role="line"
         id="tspan5483"
         x="-281.59308"
         y="989.50507">b)</tspan></text>
    <text
       xml:space="preserve"
       style="font-size:40px;font-style:normal;font-weight:normal;line-height:125%;letter-spacing:0px;word-spacing:0px;fill:#000000;fill-opacity:1;stroke:none;font-family:Sans"
       x="439.46161"
       y="989.50507"
       id="text5485"
       sodipodi:linespacing="125%"><tspan
         sodipodi:role="line"
         id="tspan5487"
         x="439.46161"
         y="989.50507">c)</tspan></text>
  </g>
</svg>
